<svg id="Layer_1" data-name="Layer 1" xmlns="http://www.w3.org/2000/svg" viewBox="0 0 2027.12 609.33"><defs><style>.cls-1{fill:#ee3537;}.cls-2{fill:#d2d2d3;}.cls-3{fill:#ee151f;}.cls-4{fill:none;}.cls-5{fill:#fff;}</style></defs><path class="cls-1" d="M951.58-223.79l-.65,0c-5.42-.12-10.83-.15-16.24-.18-1.69-.28-2.55-3.36-.16-3.24,10.1-1.24,20.29-.41,30.45-.37l-89.83-268-.87,7.7q-3.93.07-7.82.09,0-16.89,0-33.76l-70-208.71L679.43-381.07c.27,18.11.25,36.22-1,54.31-1.52,21.46-4.44,43.19-12.64,63.23-5.64,13.26-13.75,25.91-25.31,34.75-4.63,3.6-9.9,6.12-15.07,8.82L617-194.74H976l-6.67-19.9-17.75,0Q951.52-219.23,951.58-223.79Z" transform="translate(877.97 730.28)"/><polygon class="cls-1" points="857.83 535.53 498.81 535.53 678.32 0 857.83 535.53"/><polygon class="cls-2" points="4.73 514.72 2017.96 516.03 2018 600.95 5.65 602.07 4.73 514.72"/><polygon class="cls-3" points="0.06 609.33 0 532.74 14 532.72 14.05 595.33 2013.12 595.02 2013.12 535.53 2027.12 535.53 2027.12 609.01 0.06 609.33"/><path class="cls-4" d="M973.85-227.83c0-12.94.1-25.88-.15-38.82.35-51.66,0-103.33.1-155,0-60.5-.13-121,0-181.48-17.11-1.32-34.86,1.37-50,9.74-15.7,8.47-27.65,22.76-35.18,38.76a129.35,129.35,0,0,0-11.22,38.92c-.78,6.7-1.52,13.4-2.27,20.1L965-227.6C967.94-227.59,970.9-227.64,973.85-227.83Z" transform="translate(877.97 730.28)"/><path class="cls-4" d="M-681.48-579.66c-6.63-13.69-21.46-21.65-36.1-23.57-17.81-2.31-35.77-.19-53.65-.29.17,64.54.2,129.08.45,193.62,11.12.2,22.23.61,33.34.76,11.05,0,22.42-.51,32.78-4.72a42.9,42.9,0,0,0,22.18-20.79c5.93-11.9,8.72-25.07,10.65-38.14a268.58,268.58,0,0,0,.45-67.87C-673.15-554-675.62-567.46-681.48-579.66Z" transform="translate(877.97 730.28)"/><path class="cls-4" d="M92.05-578c-3.64-8.43-10.5-15.12-18.28-19.77-8.51-5-18.6-5.74-28.23-5.93-14.6-.22-29.22-.43-43.79.39,0,64.47-.35,128.94-.21,193.4,16.64.64,33.32.71,50,0a46.2,46.2,0,0,0,19.83-5c8.56-4.4,15.17-12,19.23-20.67,5.85-12.21,8.66-25.61,10.54-38.93a266.89,266.89,0,0,0,.69-62.59C100.17-551.08,97.74-565.14,92.05-578Z" transform="translate(877.97 730.28)"/><path d="M-605.74-505.64c.21-24.83-5-50.59-19.46-71.21-11.64-16.74-29.92-27.78-49.17-33.65-11.73-3.55-24.09-1.87-36.13-2.14-45.64-.12-91.28-.8-136.92-.19-7.74.29-15.52,0-23.22.9-.05,2.75-.09,5.49-.1,8.23,11.6.11,23.21,0,34.81.26q0,189.2.24,378.4c-11.31,0-22.62,0-33.93.14-1.33,3-1.35,7-1.5,10.41,47.42,0,94.83.28,142.24.36,0-3.09.06-6.18.11-9.26l-.08-1.93c-14,.25-28,.21-42,.37q-.11-85.12-.29-170.27c20.3,0,40.64.69,60.88-1.13,16.77-1.52,33.64-4.77,48.88-12.15,13.49-6.32,24.58-16.66,34.29-27.76C-611.75-455.78-606.13-481.24-605.74-505.64Zm-66.09,32.85c-1.93,13.07-4.72,26.24-10.65,38.14a42.9,42.9,0,0,1-22.18,20.79c-10.36,4.21-21.73,4.68-32.78,4.72-11.11-.15-22.22-.56-33.34-.76-.25-64.54-.28-129.08-.45-193.62,17.88.1,35.84-2,53.65.29,14.64,1.92,29.47,9.88,36.1,23.57,5.86,12.2,8.33,25.69,10.1,39A268.58,268.58,0,0,1-671.83-472.79Z" transform="translate(877.97 730.28)"/><path d="M431.68-347.38c-4.77-.12-9.53-.08-14.27-.39a132.27,132.27,0,0,0-.7,18.13c-.41,12.87-2.87,25.59-6,38-4.53,17.73-12.66,35.17-26.36,47.67-13.11,12.23-31.06,18.16-48.76,18.86-23.16.54-46.32.16-69.48.1q.12-189.26.32-378.5c13.7-.25,27.41-.2,41.11-.43,0-2.91,0-5.81,0-8.72q-69,0-138,0c0,3,.11,6,.16,9,11.25.15,22.5.3,33.75.34q0,189.12-.23,378.24c-11.28.05-22.55,0-33.82.11.09,3.68.05,7.37.5,11a96.88,96.88,0,0,1,10.78-.23q123.07.15,246.14.45a43.74,43.74,0,0,1,.77-8.09c1.14-3.23-.14-6.61.07-9.91-.07-20.68,1.7-41.31,2.59-61.95.74-14.67,2.11-29.4,1-44.08A29,29,0,0,0,431.68-347.38Z" transform="translate(877.97 730.28)"/><path d="M-303.84-603.81c-.08-2.78-.06-5.55,0-8.32-47.38-.17-94.77-.53-142.16-.43,0,3-.08,5.93-.17,8.9,13.51.14,27,.1,40.53.2.07,58.71.26,117.42.23,176.12-42.36.24-84.72.18-127.07.25,0-58.78-.08-117.56,0-176.34,13.09-.07,26.18-.07,39.28-.19.08-2.89.09-5.78.08-8.67-46.33-.14-92.67-.4-139-.25,0,3,0,5.92-.12,8.89,12.77.16,25.54,0,38.31.21q0,189.2.18,378.4c-12.74-.06-25.48,0-38.22-.15,0,.38-.07,1.14-.1,1.52,0,3.32.13,6.65.07,10q69.29.15,138.56.05c0-3.4,0-6.81.07-10.21l-.08-.57c-12.92,0-25.84-.4-38.76-.47,0-62.49-.5-125-.41-187.46q63.64,0,127.31,0c-.1,62.49.16,125-.13,187.47-11-.21-22,.08-33-.26-2.95,0-6-.33-8.8.69l1.07.66c.36,3.35.12,6.74.18,10.11,11.19.31,22.39.2,33.59.19,23.25-.2,46.51.17,69.76-.07.21-.49.61-1.47.82-2,.42-2.92.55-5.88.74-8.82l-2.91-.72c-.87-1.31-.3-3.09-.47-4.56.2-49.13-.16-98.28.29-147.4.3-75.38.06-150.78.2-226.16C-330.59-603.46-317.19-603.2-303.84-603.81Z" transform="translate(877.97 730.28)"/><path d="M114.83-603.87c-15.67-7.31-33.27-8.33-50.29-8.72-30-.36-60,.06-90,0-24.15-.4-48.32-1.17-72.44.15q-.09,4.41,0,8.82c11.57,0,23.14,0,34.71.17.15,72.21,0,144.42.25,216.63l-1,.07a7.8,7.8,0,0,1,.87,3.14q-.08,79.59-.18,159.19c7.91.1,15.81.22,23.72.3q.32,5.25.48,10.52c27.6.17,55.21-.62,82.8-.19.52-3.56.18-7.15.4-10.71C30.1-224.94,16-224.8,2-225c-.08-56.71-.42-113.41-.37-170.12,21.94-1.21,44,1,65.87-1.29a128.36,128.36,0,0,0,52.12-17.11c11.14-6.47,20.31-15.82,28.22-25.87,10.89-14.09,16-31.7,18.16-49.15,3.23-27.4-.4-56.3-13.84-80.68A80.48,80.48,0,0,0,114.83-603.87ZM101.1-474.55c-1.88,13.32-4.69,26.72-10.54,38.93C86.5-427,79.89-419.35,71.33-414.95a46.2,46.2,0,0,1-19.83,5c-16.64.69-33.32.62-50,0-.14-64.46.24-128.93.21-193.4,14.57-.82,29.19-.61,43.79-.39,9.63.19,19.72.92,28.23,5.93,7.78,4.65,14.64,11.34,18.28,19.77,5.69,12.91,8.12,27,9.74,40.91A266.89,266.89,0,0,1,101.1-474.55Z" transform="translate(877.97 730.28)"/><path d="M1145.36-617.54q-139.27-.18-278.54-.28c-.25,22.84-.16,45.68-.39,68.51,0,9.24,0,18.49,0,27.74l8.71,26c.75-6.7,1.49-13.4,2.27-20.1a129.35,129.35,0,0,1,11.22-38.92c7.53-16,19.48-30.29,35.18-38.76,15.14-8.37,32.89-11.06,50-9.74-.15,60.49,0,121,0,181.48-.09,51.66.25,103.33-.1,155,.25,12.94.13,25.88.15,38.82-3,.19-5.91.24-8.87.23l4.34,13,110.14.18c-.44-4,.24-8.28-1-12.16l-1.65-.81c-4.8,0-9.58.3-14.36.22-8.69-.07-17.51.67-26.06-1.12q.08-187.29,0-374.57c8.68-1.16,17.5-.38,26.14.92,11.09,1.76,22.28,4.42,32.07,10.15,15,8.53,26,23.09,32.07,39.09,7.88,20.5,9,42.74,9.42,64.47,3.35.13,6.7.42,10.08.66C1146-530.92,1145.56-574.23,1145.36-617.54Z" transform="translate(877.97 730.28)"/><path d="M934.53-227.23c-2.39-.12-1.53,3,.16,3.24,5.41,0,10.82.06,16.24.18l.65,0q-.06,4.56,0,9.13l17.75,0-4.34-13C954.82-227.64,944.63-228.47,934.53-227.23Z" transform="translate(877.97 730.28)"/><path d="M874.28-487.9l.87-7.7-8.71-26q0,16.88,0,33.76Q870.34-487.82,874.28-487.9Z" transform="translate(877.97 730.28)"/><path d="M679-461.28c0-47.42.09-94.85,0-142.27,12.42-.28,24.86,0,37.29-.23-.09-2.93-.11-5.87-.08-8.8-27.86-.12-55.71.32-83.57.3-.26,2.85-.09,5.72-.09,8.58,10.49,0,21,0,31.48.06.05,61.62-.65,123.25-.39,184.86,1.47,9.6,1.1,19.37,1.17,29-.29,17-.59,34.05-.73,51.07,0,1.12,0,2.24,0,3.37l15.34-45.78C679-407.81,678-434.56,679-461.28Z" transform="translate(877.97 730.28)"/><path d="M598.36-228c-2.2.08-4.67,1.16-6.69.36l-.36-.48-.42-.15c-1.17,1.83-3.55.73-5.29.9-17.67-.54-36.26-4.43-50-16.19-13.08-11-19.64-27.74-22.8-44.15-4.83-25.69-3.92-52-4-78,0-57,.36-114-.42-171-.41-22.3-.38-44.63.58-66.92,12.45-.16,24.89-.24,37.34-.52,0-2.83,0-5.66,0-8.49-46.81,0-93.61.32-140.41.44.06,2.79.13,5.58.16,8.38,13.38.22,26.76,0,40.14.19.51,7,.53,14,.59,21-.68,59-.23,118-.36,177,.17,25.68-.58,51.42,1.42,77.05,1.8,21.83,5.51,43.9,14.87,63.87,7.48,16,19.18,30.4,34.47,39.53,5.44,2.88,10.78,6,16.19,8.88,11.12,2.94,21.76,7.94,33.36,8.86a207.39,207.39,0,0,0,37.95-.48c11.49-1,22.11-5.94,33.42-7.88,2.36-1.53,4.83-2.87,7.33-4.17l7.44-22.2C623.12-234.22,610.81-229.53,598.36-228Z" transform="translate(877.97 730.28)"/><path d="M665.81-263.53c8.2-20,11.12-41.77,12.64-63.23,1.23-18.09,1.25-36.2,1-54.31l-15.34,45.78A216.31,216.31,0,0,1,661-298.73c-3.38,17.24-8.84,34.76-20.15,48.55a55.27,55.27,0,0,1-8,8L625.43-220c5.17-2.7,10.44-5.22,15.07-8.82C652.06-237.62,660.17-250.27,665.81-263.53Z" transform="translate(877.97 730.28)"/><path class="cls-5" d="M-215.36-668.67c7.15-1.52,14.54-.45,21.72.44-8.25,11.55-16.27,23.26-24.61,34.74q-3.85-.3-7.69-.68c3.6-11.48,7.09-23,10.58-34.5M788.77-653.85c5.34-.06,10.68,0,16,0,4,9,8.56,17.87,11.08,27.44-2.17,0-4.31,0-6.44,0-4.55-6.14-7.53-13.28-12.27-19.29-6.23,4.72-8,13-12.82,19-2.3.74-4.88-.06-7.26,0,3.88-9,7.81-18.05,11.68-27.08M-223-491.62c-10.73,39.36-21.77,78.63-32.41,118,5.48-4.17,10-9.65,16.25-12.77A48.09,48.09,0,0,1-213.46-391c8.54.81,15.75,5.8,23.21,9.55-4-17.92-9.13-35.56-13.91-53.29-5.7-20.09-11-40.33-17.62-60.15a13.67,13.67,0,0,0-1.25,3.31m991.89-3q-17.19,62.1-34.21,124.24c4-3,7.43-6.77,11.67-9.48,12.73-8,29.58-9.31,43.23-2.83,4.75,2.13,8.63,5.69,13.13,8.27-2.16-12.63-6.76-24.65-9.92-37-6.08-20.79-11.12-41.87-16.81-62.77-2.15-6.85-3.57-14.1-7.09-20.4m-8.29,268a15.35,15.35,0,0,1,18.9-3.93c5.35,2.77,8.16,8.69,8.92,14.45-.21,4.78-1.61,9.75-5.12,13.19-5.31,5.52-14.8,6-20.71,1.15-4.35-3.3-6.1-8.88-6.22-14.15.53-3.83,1.67-7.72,4.23-10.71m-648.93,15.7a70.2,70.2,0,0,1,9.29-.09c-1,5.66-7.24,9.29-12.72,10-.35,1-.69,2.06-1,3.1-2.08.28-4.3.77-6.27-.15-1.87-1.23-3.09-3.19-4.93-4.45C94.78-201,93.93-199,92.26-198a20.46,20.46,0,0,1-7.32-.31,73,73,0,0,1,6.55-9.8c3.38,0,6.76,0,10.16,0,1.45,2.43,2.69,5.35,5.66,6.23,1.44-3,2.84-6.11,4.33-9.13m103.32,0c2.82-.17,5.79-.71,8.54.28,3.33,1.73,4,5.76,4.84,9.06a8.24,8.24,0,0,1-8.19-2.61c-1.85-2.12-4.39-4-5.19-6.73m-381.3,2.45a77.6,77.6,0,0,1,10.89-.08c1.41,3.59,3.58,7,4.21,10.83-2.29-.22-5.17.78-6.85-1.28-3-2.91-6.18-5.78-8.25-9.47m516.14.12c3.17-.69,6.46-.25,9.69-.08a40,40,0,0,1-9.76,10c-1.73,1.27-4,.57-5.94.61,1.21-3.83,2.5-8.12,6-10.49M195.6-198a43.48,43.48,0,0,1,7-9.87c3.31-.36,7.12-.93,10.07,1a21.33,21.33,0,0,1,5.86,8.86,39.21,39.21,0,0,1-6.68,0c-2.11-.78-2.95-3.84-5.25-4-1.56,1.18-2.66,3-4.43,3.85a33.22,33.22,0,0,1-6.61.13M90.92-195.2c8.29-1.75,17.52.57,23.53,6.69,5.43,5.4,7.71,13.3,7.41,20.82-.31,6.52-1.51,13.4-5.57,18.7-10,13.54-34.38,11.73-41.93-3.45C70-161,70-171.3,73.09-180.27,75.83-188,83-193.63,90.92-195.2m1.89,12.84c-5.14,2.35-6.77,8.54-6.69,13.74s.66,11.74,5.58,14.88c3.93,2.68,9.58,1.14,12.15-2.69,3.87-5.53,3.43-12.93,1.74-19.15-1.37-5.3-7.52-9.33-12.78-6.78m109-12.91c9.23-1.86,19.56,1.44,25.35,9,4.49,5.81,5.34,13.45,5.29,20.56-.17,8.15-3.59,16.66-10.5,21.37-11.72,8.49-30.7,4.59-37.16-8.67a37.26,37.26,0,0,1-1.59-26,24,24,0,0,1,18.61-16.28m2.16,13.13c-4.39,2-6.53,6.88-7.17,11.4-.68,5.26.06,11.14,3.62,15.29,2.86,3.41,8.16,3.69,11.87,1.57,3-2.06,4.11-5.79,4.75-9.18.85-5.93.3-12.6-3.61-17.41-2.24-2.81-6.36-3.19-9.46-1.67m47.55-8.56c8.42-7,21.65-6.9,30.1,0a19.75,19.75,0,0,1,7.11,12c-4,1-7.88,2.12-11.91,2.69-2.59-1.94-3.51-6.15-7.19-6.67-4.64-1.41-9.47,1.71-11,6.09-2.92,7.57-1.95,17.21,3.83,23.22a14.07,14.07,0,0,0,8.28,0c3.79-1.21,4.36-5.7,5.55-8.93,4.35.92,8.58,2.3,12.92,3.32-.36,5.81-3.82,11.12-8.32,14.66-8.31,6.36-21,6.2-29-.51-6.58-5.18-9.47-13.78-9.56-21.93-.34-8.73,2.22-18.25,9.24-23.95m-525.34-3.38c20.37-.18,40.75-.6,61.12-.29.27,6.16,0,12.34.47,18.5,5.22,0,10.45,0,15.68,0,.41-6.18.4-12.38.54-18.57,4.87-.22,9.74-.07,14.62,0,.57,2.9.32,5.87.36,8.82q0,18.48.09,37a18.21,18.21,0,0,0,1.58-2.91c5.16-14.21,10.11-28.5,15.44-42.64,5.48-.21,11-.22,16.46-.24,5.19,14.17,9.73,28.58,14.72,42.84l1.18,2.35c1-4.4.43-8.91.61-13.35.22-10.6,0-21.2.48-31.78,3.7-.09,7.4-.35,11.1-.13a4.87,4.87,0,0,1,3.92,2c5.94,8.44,10.31,18,16.86,26,.58-9.23.17-18.49.45-27.73q6.89-.24,13.81-.2c.3,17.72.38,35.47.13,53.2-4.42.18-8.86.18-13.28,0-2.39-1.3-3.38-4.18-4.94-6.29-4.61-7-8-14.85-13.7-21-.37,9-.24,18.07-.44,27.11-7.93.59-15.91.14-23.86.39-1.41-.24-3.46.53-4.39-.82-1-2.46-1.64-5-2.71-7.43-5.63-.09-11.25-.55-16.87-.29-.81,2.53-1.12,5.25-2.3,7.66-1.67,1.1-3.76.94-5.65,1-7.91,0-15.81-.2-23.71-.08-.32-7.12.43-14.32-.43-21.39-5.23,0-10.47-.33-15.7-.16-.19,7-.18,14-.45,20.94a144.89,144.89,0,0,1-14.88.39c-.2-13.39-.21-26.79-.16-40.19-5.11-.22-10.22,0-15.31.24-.37,13.28-.26,26.58-.54,39.88a138.79,138.79,0,0,1-15-.06c-.19-13.26.14-26.53-.17-39.79-4.94,0-9.88,0-14.8-.31-.2-4.19-.48-8.39-.34-12.59m118,15.38c-1.81,5.59-3.49,11.22-5.31,16.81a80.2,80.2,0,0,0,10.4.11c-1.95-5.56-2.45-11.66-5.09-16.92m75.66-15.7c4.9,0,9.81-.1,14.73-.12.35,6.14,0,12.3.45,18.44,5.18.29,10.36.15,15.54.27.65-6,.25-12.05.76-18.05l.5-.47c4.81-.23,9.63-.22,14.45,0-.12,17.78.2,35.55,0,53.33-4.79-.19-9.59,0-14.37-.11l-.47-.45c-.44-6.92-.17-13.88-.16-20.81a123.45,123.45,0,0,0-16.32,0q0,10.56-.24,21.12a141.39,141.39,0,0,1-15-.12c.07-17.65-.16-35.31.13-53m60.14,0c8.9-.34,17.84-.6,26.74-.06,4.92.3,10.35,2.37,12.57,7.1A24.53,24.53,0,0,1,21-172.39c-1,4.75-5,8.25-9.47,9.69-5.33,2-11.1,1.53-16.65,2.27-.21,6.42.76,13-.51,19.34-4.82-.13-9.64,0-14.45.07-.21-17.78.13-35.57,0-53.35m15,11c0,3.79.06,7.58,0,11.38,3.23.06,7,.63,9.7-1.5,2.58-2.31,1.33-6,.59-8.85a30,30,0,0,0-10.33-1m27.88-11c4.91-.14,9.83-.11,14.75-.11.35,6.15.27,12.32.38,18.49,5.22.12,10.46.12,15.7.16.66-6,.2-12,.68-17.94l.47-.47c4.81-.27,9.65-.26,14.49-.18-.11,17.8.25,35.6,0,53.39-4.92-.44-10.2.57-14.89-.52-.45-6.91-.11-13.86-.19-20.79A157.69,157.69,0,0,0,38-162.45c0,7,0,14.06-.23,21.08a112,112,0,0,1-15-.07c.05-17.65-.08-35.3.07-52.95m142.36.34c4.85-.09,9.69-.29,14.55-.45.35,17.7,0,35.44-.15,53.16-4.83,0-9.9.91-14.56-.47-.07-6.91.23-13.85-.39-20.73-5.35,0-10.69,0-16,.07-.41,7-.14,13.95-.25,20.92a75.5,75.5,0,0,1-14.65.12c-.06-17.48-.41-35-.25-52.44,5,0,10-.7,14.92.1.22,5.92-.4,11.9.45,17.79,5.27-.06,10.55,0,15.83.09.73-6-.24-12.13.52-18.16m125.48-.45c4.94,0,9.88,0,14.83,0,.32,6.17.19,12.34.43,18.51,5.23.13,10.46.07,15.7.08.61-6,.16-12,.6-18,4.66-1.35,10.07-.41,15-.54-.13,17.78.18,35.57,0,53.35-5-.32-10.07.31-15-.37-.12-7,0-14,0-20.92-5.41-.1-10.83-.56-16.22-.13,0,7,0,14-.34,21a141.65,141.65,0,0,1-15,.22c0-17.74,0-35.48.06-53.22m51.1.18c4.86,0,9.72-.19,14.59-.18q.23,26.61.21,53.23a146.53,146.53,0,0,1-15-.18c-.24-13.72,0-27.45-.1-41.18.08-3.9-.27-7.82.27-11.69m29.1-.05c6.55-.1,13.11-.09,19.67-.09,3.05,10,4.33,20.43,7.72,30.26,2.72-10,4.92-20.09,7.66-30.06,6.52,0,13-.19,19.58-.24q.24,26.53.13,53.09a89.13,89.13,0,0,1-12.23,0c-.28-12.07.15-24.15-.23-36.22-4.48,9.42-6,19.88-8,30-.56,2.07-.31,4.52-1.58,6.3a73.71,73.71,0,0,1-11.12,0c-3-12.08-5.71-24.22-8.4-36.37a26.13,26.13,0,0,0-.61,7c-.09,8.67-.3,17.34-.3,26-.19,1.1.51,3.64-1.49,3.28a81.21,81.21,0,0,1-10.92,0c0-17.65-.09-35.31.08-53m58.91.11c4.87.09,9.74-.17,14.62-.21.12,17.68.09,35.37.09,53.06-4.89.22-9.9.63-14.73-.15,0-14.35-.21-28.69-.31-43,0-3.23-.33-6.49.33-9.67m19.24,0c4.8-.14,9.61-.11,14.42-.09,5.94,9.25,10.42,19.6,17.9,27.78.36-9.28-.08-18.56.35-27.83q6.87,0,13.77-.14c.25,14.3.14,28.6.24,42.9-.06,3.55.31,7.13-.29,10.65-5.17-.7-11.87,1.94-15.68-2.77-5.75-8.05-9.52-17.5-16.08-24.95-.85,9.17-.14,18.43-.45,27.64-4.68-.06-9.36.06-14-.16-.31-17.67,0-35.36-.15-53m50.48-.18c4.93-.08,9.87-.07,14.81.07.24,6.15,0,12.33.46,18.48,5.21-.1,10.42.1,15.64,0,.35-6.13.3-12.27.63-18.4,4.85-.39,9.73-.15,14.61-.24.58,17.7.32,35.46.27,53.18-4.82.17-9.65.25-14.46,0l-.49-.55c-.33-6.89.23-13.79-.31-20.67-5.31,0-10.63-.2-15.93-.06-.1,7-.15,14.05-.31,21.07a131.39,131.39,0,0,1-15,.17c-.08-17.7-.16-35.42.06-53.12ZM788-621.35c5.15,0,10.31.11,15.48.12q49.85,172.62,99.37,345.35c5.14,17.26,8.78,35,15.38,51.81q8.22.15,16.47.08c5.41,0,10.82.06,16.24.18.05,3.13,0,6.26-.22,9.39-8,1.07-16.1.9-24.14,1.11-33.67.31-67.34.07-101-.18-4.55-.08-9.1.14-13.61-.36-.09-.44-.25-1.33-.33-1.77-.13-2.78-.08-5.56-.08-8.34,11.83-.08,23.66,0,35.5-.15-5.19-22.27-11.61-44.23-17.67-66.27C825-305.45,821.06-320.66,816-335.5c-2.14,3.73-2.25,8.2-4.21,12-7.54,17.15-26.59,28.38-45.26,26.38a43.7,43.7,0,0,1-34.43-22,55.52,55.52,0,0,1-6.29-17.78c-5.63,17.37-10.32,35.07-15.58,52.57-3.81,13.51-8.28,26.87-10.88,40.68-.67,4.47-1.6,9.42.56,13.63,2,3.46,6.25,4.24,9.87,4.72,7.51.76,15.07.8,22.61,1.37.07,2.81.22,5.61.14,8.43l-.28,1.66c-24.53.55-49.1.05-73.64.25-3,0-5.89,0-8.81-.2-.07-.5-.2-1.5-.27-2-.12-2.74-.1-5.48-.14-8.21,9.07-.37,19.45.2,26.78-6.13,6.64-6.51,8.35-16.12,11-24.65Q737.77-438,788-621.35m-991.06.3,15.51-.36c10.39,32.3,18.6,65.24,28.15,97.79q36,124.94,71.91,249.86c4.73,16.33,10.42,32.44,13.63,49.16.88,1.06,1.87,2.25,3.43,2.15,9.88.4,19.79-.14,29.69.17q0,3.66,0,7.34c-25.23.46-50.48.19-75.72.39-20.66,0-41.31.3-62,.07q-.12-4.1,0-8.16c12-.57,24.25,1.78,36-1.28-.56-1.27-1.11-2.53-1.62-3.81-10.26-35.37-19.78-71-29.89-106.4-2.8,2.22-3.33,5.93-4.94,8.92a45.53,45.53,0,0,1-35.6,23.8c-18.17,1.92-37.58-8.27-44.89-25.27-2-3.95-1.55-9.48-5.71-12-6.91,23.3-13.53,46.69-20.36,70-2.63,8.63-5.45,17.25-6.81,26.19-.58,4.07-1,8.64,1.54,12.2,2.43,3.86,7.09,5.44,11.41,6,6.93.85,13.93.17,20.89.43,0,3.13.06,6.28.05,9.42-21.66.42-43.35.53-65,.05a171.67,171.67,0,0,1-18.42-1.14c.42-2.92.55-5.88.74-8.82,6.4.76,13.16,1,19.26-1.42a21.68,21.68,0,0,0,10.35-8.87c3.85-6.12,5.68-13.2,7.61-20.09l28.59-103.86C-251-446-228.25-533.88-203.07-621" transform="translate(877.97 730.28)"/></svg>